#!OML:ASF E:\Steps\Project 1\Capture day 1\Session 2\Subject.ASF
:FULLY-SPECIFIED
:DEGREES
1
root 8.52656 16.3748 9.51694 -150.452 2.62556 -179.893
lowerback -27.1682 -1.86743 -5.35787
upperback -2.26355 -0.0191588 -0.743566
thorax 12.6436 0.0147345 2.29896
lowerneck -2.95219 -2.80164 -5.1658
upperneck 15.4129 -3.8477 8.72273
head 5.37035 -1.30179 3.40868
rclavicle -4.37326e-015 1.74931e-014
rhumerus -36.2345 -13.6821 -80.9781
rradius 36.1178
rwrist 1.24652
rhand -6.50569 -51.3538
rfingers 7.12502
rthumb 19.3462 -80.4114
lclavicle -4.37326e-015 1.74931e-014
lhumerus -31.4273 26.0872 67.7849
lradius 9.86167
lwrist -28.9362
lhand -17.014 -11.5156
lfingers 7.12502
lthumb 9.22184 18.2627
rfemur -27.3691 8.10722 16.0979
rtibia 9.34971
rfoot -19.6216 -12.267
rtoes -33.117
lfemur -27.7517 -10.1034 -17.2259
ltibia 8.32216
lfoot -8.84525 0.576674
ltoes -44.4867
2
root 8.53532 16.3772 9.5073 -150.559 2.75054 -179.893
lowerback -27.1022 -1.81003 -5.368
upperback -2.30636 0.0562669 -0.744847
thorax 12.5525 0.0530754 2.33161
lowerneck -2.77316 -2.76802 -5.24241
upperneck 15.3419 -3.79339 8.72255
head 5.31489 -1.2838 3.42562
rclavicle -5.46658e-015 -3.18055e-015
rhumerus -36.1485 -13.8126 -80.8886
rradius 35.7715
rwrist 1.56797
rhand -6.79925 -51.3959
rfingers 7.12502
rthumb 19.0639 -80.4816
lclavicle -5.46658e-015 -3.18055e-015
lhumerus -31.6859 25.9831 67.7305
lradius 10.1453
lwrist -28.6864
lhand -16.9214 -11.5707
lfingers 7.12502
lthumb 9.31122 18.2036
rfemur -27.2678 8.05821 16.1776
rtibia 9.44253
rfoot -19.4628 -12.4098
rtoes -34.3109
lfemur -27.6845 -10.2064 -17.2012
ltibia 8.57734
lfoot -8.71667 0.789566
ltoes -42.5357
3
root 8.54187 16.3735 9.49557 -150.55 2.8114 -179.929
lowerback -27.2328 -1.73497 -5.38055
upperback -2.29467 0.179719 -0.802423
thorax 12.6267 0.110089 2.31959
lowerneck -2.76567 -2.78915 -5.1282
upperneck 15.2624 -3.82528 8.67801
head 5.28862 -1.29895 3.38938
rclavicle -3.57812e-015 -1.82882e-014
rhumerus -35.9957 -13.9183 -80.8898
rradius 35.5335
rwrist 1.69857
rhand -6.50795 -51.512
rfingers 7.12502
rthumb 19.344 -80.5699
lclavicle -3.57812e-015 -1.82882e-014
lhumerus -31.3759 24.4844 68.5156
lradius 10.4485
lwrist -26.9792
lhand -16.9428 -11.3235
lfingers 7.12502
lthumb 9.29056 18.4518
rfemur -27.2139 8.10906 16.1531
rtibia 9.40767
rfoot -19.3919 -12.5392
rtoes -35.0203
lfemur -27.6877 -10.1331 -17.2993
ltibia 8.63561
lfoot -7.76904 0.8483
ltoes -39.8478
4
root 8.54954 16.3712 9.48681 -150.47 2.76876 -179.947
lowerback -27.3561 -1.70585 -5.38475
upperback -2.32383 0.240333 -0.825948
thorax 12.654 0.142423 2.31914
lowerneck -2.75925 -2.81635 -5.02459
upperneck 15.1892 -3.86506 8.63562
head 5.26529 -1.31825 3.35527
rclavicle -4.17448e-015 7.15625e-015
rhumerus -35.9033 -13.9612 -80.8743
rradius 35.3661
rwrist 1.94454
rhand -5.85037 -51.8271
rfingers 7.12502
rthumb 19.9762 -80.8203
lclavicle -4.17448e-015 7.15625e-015
lhumerus -31.0692 22.9063 69.358
lradius 10.7663
lwrist -25.2374
lhand -16.9353 -11.1815
lfingers 7.12502
lthumb 9.29777 18.5935
rfemur -27.205 8.16738 16.1547
rtibia 9.31252
rfoot -19.3096 -12.5364
rtoes -34.6337
lfemur -27.7548 -9.98055 -17.3408
ltibia 8.63212
lfoot -7.75753 0.68991
ltoes -40.7297
5
root 8.55477 16.3698 9.47107 -150.52 2.9225 -179.981
lowerback -27.4329 -1.6352 -5.40615
upperback -2.3367 0.352226 -0.852765
thorax 12.6715 0.194622 2.34338
lowerneck -2.72304 -2.82441 -5.00956
upperneck 15.1188 -3.87464 8.60781
head 5.23732 -1.32758 3.3428
rclavicle -7.85199e-015 1.19271e-014
rhumerus -35.9713 -13.9292 -80.8537
rradius 35.3525
rwrist 1.99162
rhand -5.79985 -51.9892
rfingers 7.12502
rthumb 20.0248 -80.9773
lclavicle -7.85199e-015 1.19271e-014
lhumerus -30.9128 22.0687 69.8796
lradius 10.9654
lwrist -24.2542
lhand -16.8494 -10.944
lfingers 7.12502
lthumb 9.38067 18.8273
rfemur -27.0916 8.29576 16.0726
rtibia 9.2362
rfoot -19.303 -12.4832
rtoes -33.9603
lfemur -27.5384 -9.99885 -17.4019
ltibia 8.51018
lfoot -7.76573 0.834
ltoes -40.8231
6
root 8.5619 16.3705 9.46252 -150.605 3.0953 -180.107
lowerback -27.3853 -1.59187 -5.55909
upperback -2.34073 0.457355 -0.890491
thorax 12.6332 0.236549 2.42713
lowerneck -2.74359 -2.8192 -5.03647
upperneck 15.0479 -3.86671 8.5899
head 5.21864 -1.33049 3.3409
rclavicle 1.70955e-014 -2.38542e-014
rhumerus -35.9317 -14.0065 -80.859
rradius 35.2858
rwrist 1.74611
rhand -6.55857 -51.7474
rfingers 7.12502
rthumb 19.2953 -80.8102
lclavicle 1.70955e-014 -2.38542e-014
lhumerus -30.776 22.1521 70.0208
lradius 10.9616
lwrist -24.3037
lhand -17.0566 -10.9149
lfingers 7.12502
lthumb 9.18075 18.8653
rfemur -27.0006 8.54773 15.8283
rtibia 9.1662
rfoot -19.2939 -12.6687
rtoes -33.7139
lfemur -27.3451 -10.0339 -17.5571
ltibia 8.37914
lfoot -7.75427 1.00784
ltoes -41.8191
7
root 8.57003 16.3721 9.45595 -150.622 3.1962 -180.141
lowerback -27.3692 -1.57431 -5.62163
upperback -2.34825 0.497474 -0.8865
thorax 12.6123 0.252025 2.48256
lowerneck -2.7985 -2.80281 -5.05685
upperneck 14.9783 -3.84428 8.56029
head 5.20488 -1.32701 3.33463
rclavicle 1.11319e-014 7.15625e-015
rhumerus -35.7334 -14.0905 -80.8878
rradius 35.0543
rwrist 1.70229
rhand -7.03274 -51.8126
rfingers 7.12502
rthumb 18.8393 -80.9203
lclavicle 1.11319e-014 7.15625e-015
lhumerus -30.6699 22.4199 70.0878
lradius 10.9988
lwrist -24.5645
lhand -17.5392 -11.4671
lfingers 7.12502
lthumb 8.71505 18.333
rfemur -26.9593 8.70087 15.751
rtibia 9.10217
rfoot -19.2858 -12.7455
rtoes -33.6104
lfemur -27.2577 -9.92545 -17.6204
ltibia 8.24566
lfoot -7.70812 1.07423
ltoes -43.3392
8
root 8.5785 16.3734 9.44801 -150.615 3.21547 -180.085
lowerback -27.3864 -1.56855 -5.57514
upperback -2.3851 0.488134 -0.837888
thorax 12.5787 0.25204 2.50853
lowerneck -2.81083 -2.78089 -5.08575
upperneck 14.9078 -3.81208 8.52545
head 5.18292 -1.31968 3.32916
rclavicle -1.59028e-015 -1.59028e-015
rhumerus -35.6309 -13.994 -80.9057
rradius 34.8032
rwrist 1.70394
rhand -7.23742 -51.9752
rfingers 7.12502
rthumb 18.6425 -81.1019
lclavicle -1.59028e-015 -1.59028e-015
lhumerus -30.6295 22.1632 70.367
lradius 11.2245
lwrist -24.1968
lhand -17.8381 -11.7174
lfingers 7.12502
lthumb 8.42661 18.0945
rfemur -26.9049 8.9779 15.7904
rtibia 9.02761
rfoot -19.3761 -12.8824
rtoes -33.1058
lfemur -27.2613 -9.7999 -17.5629
ltibia 8.28201
lfoot -7.70791 1.0875
ltoes -44.2149
9
root 8.58562 16.3716 9.43869 -150.592 3.21598 -180.011
lowerback -27.5157 -1.55256 -5.50688
upperback -2.39733 0.493535 -0.78419
thorax 12.6325 0.256606 2.53432
lowerneck -2.80784 -2.7654 -5.12
upperneck 14.8253 -3.78918 8.50108
head 5.15558 -1.31696 3.32741
rclavicle 2.98177e-015 2.06736e-014
rhumerus -35.5123 -13.9072 -80.8838
rradius 34.574
rwrist 1.66897
rhand -7.73422 -51.6548
rfingers 7.12502
rthumb 18.1646 -80.8266
lclavicle 2.98177e-015 2.06736e-014
lhumerus -30.5289 21.6263 70.8139
lradius 11.501
lwrist -23.4171
lhand -17.9075 -11.3289
lfingers 7.12502
lthumb 8.35957 18.4857
rfemur -26.8444 9.10472 15.8832
rtibia 8.92219
rfoot -19.4302 -12.9681
rtoes -32.9521
lfemur -27.3314 -9.88831 -17.4309
ltibia 8.47523
lfoot -7.77446 1.22434
ltoes -44.2934
10
root 8.5902 16.3662 9.42576 -150.545 3.25483 -180.006
lowerback -27.7764 -1.53469 -5.46341
upperback -2.35676 0.526729 -0.790339
thorax 12.8164 0.269029 2.51739
lowerneck -2.82573 -2.75843 -5.08369
upperneck 14.7346 -3.78156 8.46387
head 5.12893 -1.31861 3.30857
rclavicle 5.06901e-015 -2.3059e-014
rhumerus -35.2905 -13.813 -80.9613
rradius 34.4214
rwrist 1.63232
rhand -7.61108 -51.2014
rfingers 7.12502
rthumb 18.283 -80.3622
lclavicle 5.06901e-015 -2.3059e-014
lhumerus -30.2921 20.9803 71.3337
lradius 11.7661
lwrist -22.5207
lhand -18.0557 -11.2654
lfingers 7.12502
lthumb 8.21655 18.5549
rfemur -26.8012 8.84954 15.9817
rtibia 8.85747
rfoot -19.3968 -12.781
rtoes -33.5381
lfemur -27.3591 -10.0721 -17.399
ltibia 8.58853
lfoot -7.81998 1.46066
ltoes -44.2221
11
root 8.59543 16.3628 9.41275 -150.504 3.25582 -180.032
lowerback -27.9891 -1.54501 -5.44912
upperback -2.33115 0.52871 -0.791317
thorax 12.9597 0.267587 2.51113
lowerneck -2.82423 -2.7486 -5.05205
upperneck 14.6543 -3.76803 8.41825
head 5.10169 -1.31773 3.28855
rclavicle -2.78299e-015 1.82882e-014
rhumerus -35.1426 -13.6916 -81.0681
rradius 34.4171
rwrist 1.56963
rhand -6.9124 -51.3963
rfingers 7.12502
rthumb 18.9551 -80.4927
lclavicle -2.78299e-015 1.82882e-014
lhumerus -30.0814 20.4368 71.8158
lradius 11.9762
lwrist -21.8809
lhand -18.3841 -11.6733
lfingers 7.12502
lthumb 7.89961 18.1591
rfemur -26.735 8.59742 16.053
rtibia 8.77525
rfoot -19.3379 -12.5955
rtoes -33.9664
lfemur -27.3474 -10.0987 -17.4331
ltibia 8.5793
lfoot -7.81269 1.52799
ltoes -44.3653
12
root 8.60233 16.3629 9.40225 -150.469 3.14686 -180.01
lowerback -28.0344 -1.57533 -5.39235
upperback -2.38907 0.479628 -0.762816
thorax 12.9197 0.254467 2.49374
lowerneck -2.80484 -2.7481 -5.04479
upperneck 14.5867 -3.76554 8.37913
head 5.07667 -1.32249 3.27443
rclavicle 1.59028e-015 -3.33958e-014
rhumerus -35.2069 -13.7899 -81.0555
rradius 34.5104
rwrist 1.6907
rhand -6.91739 -51.5667
rfingers 7.12502
rthumb 18.9503 -80.6636
lclavicle 1.59028e-015 -3.33958e-014
lhumerus -29.9743 19.8903 72.2265
lradius 12.1092
lwrist -21.4914
lhand -18.6656 -11.5625
lfingers 7.12502
lthumb 7.62791 18.2799
rfemur -26.6547 8.65441 16.1138
rtibia 8.65923
rfoot -19.3553 -12.7337
rtoes -33.9608
lfemur -27.3762 -10.0971 -17.3611
ltibia 8.60433
lfoot -7.83806 1.45999
ltoes -44.4876
